# xmcd
#
# Track frame offsets: 
#        150
#        15502
#        24830
#        36032
#        48877
#        61862
#        71952
#        85019
#        97469
#        108087
#        121945
#        137002
#        152545
#        170175
#        188792
#        201452
#
# Disc length: 2858 seconds
#
# Revision: 0
# Processed by: cddbd v1.5.2PL0 Copyright (c) Steve Scherf et al.
# Submitted via: ExactAudioCopy v0.95b3
#
DISCID=d40b2810
DTITLE=The Rolling Stones  - Metamorphosis  
DYEAR=1900
DGENRE=
TTITLE0=Out Of Time
TTITLE1=Don't Lie To Me
TTITLE2=Some Things Just Stick In Your Mind
TTITLE3=Each And Everyday Of The Year
TTITLE4=Heart Of Stone
TTITLE5=I'd Much Rather Be With The Boys
TTITLE6=(Walkin' Thru The) Sleepy City
TTITLE7=We're Wastin' Time
TTITLE8=Try A Little Harder
TTITLE9=I Don't Know Why
TTITLE10=If You Let Me
TTITLE11=Jiving Sister Fanny
TTITLE12=Downtown Suzie
TTITLE13=Family
TTITLE14=Memo From Turner
TTITLE15=I'm Going Down
EXTD=
EXTT0=
EXTT1=
EXTT2=
EXTT3=
EXTT4=
EXTT5=
EXTT6=
EXTT7=
EXTT8=
EXTT9=
EXTT10=
EXTT11=
EXTT12=
EXTT13=
EXTT14=
EXTT15=
PLAYORDER=
